<svg xmlns="http://www.w3.org/2000/svg" width="60" height="60" viewBox="0 0 60 60">
  <g id="callwh" transform="translate(-528.723 -5007)">
    <g id="call-calling_bulk" data-name="call-calling/bulk" transform="translate(528.723 5007)">
      <g id="vuesax_bulk_call-calling" data-name="vuesax/bulk/call-calling">
        <g id="call-calling">
          <path id="Vector" d="M10.941,12.894a1.929,1.929,0,0,1-1.928-1.928c0-.926-.926-2.854-2.479-4.532C5.008,4.807,3.33,3.856,1.928,3.856A1.928,1.928,0,1,1,1.928,0c2.5,0,5.133,1.352,7.436,3.781,2.153,2.278,3.53,5.108,3.53,7.161A1.955,1.955,0,0,1,10.941,12.894Z" transform="translate(33.111 13.994)" fill="#fff"/>
          <path id="Vector-2" data-name="Vector" d="M19.955,21.908a1.929,1.929,0,0,1-1.928-1.928,16.119,16.119,0,0,0-16.1-16.1A1.941,1.941,0,0,1,1.9,0a20,20,0,0,1,19.98,19.98A1.945,1.945,0,0,1,19.955,21.908Z" transform="translate(33.11 5.008)" fill="#fff"/>
          <path id="Vector-3" data-name="Vector" d="M24.512,30.571l-8.187,8.187q-1.352-1.2-2.629-2.479A71.141,71.141,0,0,1,6.71,28.092,44.637,44.637,0,0,1,1.8,19.554,21.088,21.088,0,0,1,0,11.367,12.952,12.952,0,0,1,.9,6.535,11.524,11.524,0,0,1,3.781,2.354,7.336,7.336,0,0,1,8.989,0a4.705,4.705,0,0,1,2.028.451,4.082,4.082,0,0,1,1.678,1.4L18.5,10.04a8.569,8.569,0,0,1,1,1.753,3.957,3.957,0,0,1,.351,1.527,3.4,3.4,0,0,1-.526,1.778,8.516,8.516,0,0,1-1.4,1.778l-1.9,1.978a1.34,1.34,0,0,0-.4,1,2.273,2.273,0,0,0,.075.576c.075.2.15.351.2.5a20.777,20.777,0,0,0,2.328,3.2c1.127,1.3,2.328,2.629,3.63,3.956C22.759,28.969,23.636,29.82,24.512,30.571Z" transform="translate(5.008 5.008)" fill="#fff" opacity="0.4"/>
          <path id="Vector-4" data-name="Vector" d="M30.972,10.741a6.359,6.359,0,0,1-.376,2.128,6.115,6.115,0,0,1-.25.6,10.331,10.331,0,0,1-1.7,2.554,11.288,11.288,0,0,1-4.106,2.954c-.025,0-.05.025-.075.025a12.648,12.648,0,0,1-4.807.926A20.865,20.865,0,0,1,11.492,18.1a43.977,43.977,0,0,1-8.613-4.957C1.9,12.419.926,11.693,0,10.916L8.187,2.729a14.067,14.067,0,0,0,1.853,1.2c.125.05.275.125.451.2a1.729,1.729,0,0,0,.626.1,1.377,1.377,0,0,0,1.027-.426l1.9-1.878a7.682,7.682,0,0,1,1.8-1.4A3.334,3.334,0,0,1,17.626,0a4,4,0,0,1,1.527.325,9.683,9.683,0,0,1,1.753.976l8.287,5.884a3.8,3.8,0,0,1,1.377,1.6A5.137,5.137,0,0,1,30.972,10.741Z" transform="translate(23.946 35.063)" fill="#fff"/>
          <path id="Vector-5" data-name="Vector" d="M0,0H60V60H0Z" fill="none" opacity="0"/>
        </g>
      </g>
    </g>
  </g>
</svg>
