<svg xmlns="http://www.w3.org/2000/svg" xmlns:xlink="http://www.w3.org/1999/xlink" width="146.322" height="60" viewBox="0 0 146.322 60">
  <defs>
    <linearGradient id="linear-gradient" x2="1" y2="0.771" gradientUnits="objectBoundingBox">
      <stop offset="0" stop-color="#fff"/>
      <stop offset="1" stop-color="#199ebd"/>
    </linearGradient>
  </defs>
  <g id="tlogo" transform="translate(-231.883 -442.762)">
    <path id="Path_1" data-name="Path 1" d="M270.448,442.815a87.522,87.522,0,0,0-15.2,2.4c-6.257,1.583-13.2,4.418-16.907,6.921a19.214,19.214,0,0,0-5.721,5.976,6.551,6.551,0,0,0-.741,3.7c0,2.911.766,4.444,3.6,7.253,2.375,2.4,4.878,4.214,11.518,8.377,2.605,1.66,4.8,3.065,4.853,3.116a7.942,7.942,0,0,1-1.788,1.022c-4.827,2.324-7.381,6.053-7,10.216a6.375,6.375,0,0,1-.332,2.963c-1.3,3.78.153,6.615,3.959,7.713a19.607,19.607,0,0,0,7.917-.281c4.852-1.277,9.194-4.393,10.241-7.381.383-1.073.613-1.379,1.251-1.558,1.915-.587,1.839-.613,2.145,1.047.332,1.967.741,2.5,1.481,2.043.255-.153.2-.434-.179-1.2a5.012,5.012,0,0,1-.511-1.839c0-.741.1-.843.97-1.1,1.481-.409,19-4.725,22.015-5.414l2.682-.613,1.073.817a5.987,5.987,0,0,0,4.648,1.328c2.452-.128,4.291-1.1,6.64-3.473,1.507-1.532,2.12-1.967,2.937-2.12.587-.128,2.707-.562,4.75-1,12.106-2.528,34.53-6.768,35.015-6.589.1.051-.1.562-.485,1.149a2.647,2.647,0,0,1-1.839,1.379c-.639.153-1.89.485-2.809.741s-2.631.715-3.831,1.022-3.32.894-4.725,1.277-3.882,1.073-5.491,1.507c-8.147,2.2-29.294,8.3-36.036,10.369-10.037,3.09-14.532,4.7-14.532,5.236,0,.383,1.967.306,3.448-.128.715-.2,3.295-.945,5.746-1.66a302.964,302.964,0,0,1,31.746-7.381c6.283-1.022,9.909-1.507,15.375-2.043,8.275-.843,10.7-.919,26.944-.919,9.194,0,15.86-.077,14.813-.153a270.579,270.579,0,0,0-55.906,1.711c-4.6.613-6.385.69-4.112.153.638-.128,2.426-.587,3.959-1.022,1.558-.409,4.367-1.149,6.257-1.66s4.955-1.3,6.768-1.813c1.839-.485,4.469-1.2,5.874-1.558s3.4-.894,4.444-1.175a12.9,12.9,0,0,1,1.967-.434,2.979,2.979,0,0,1-.281,1.1c-.536,1.481-.485,2.758.128,3.32,1.1,1,2.605-.332,4.572-3.984l1.047-1.941L358,476.757c2.835-.792,5.517-1.609,5.951-1.788.69-.281.868-.281,1.2.051.792.792,1.813-.332,4.189-4.648a30.409,30.409,0,0,0,2.5-5.236c-.051,0-.817,1.354-1.686,2.988-2.733,5.133-4.24,7.253-4.648,6.538a14.914,14.914,0,0,1-.077-2.631c.077-2.86,1.2-7.458,3.856-15.579,1.66-5.057,1.864-5.874,1.456-5.874-.664,0-1.941,2.3-4.8,8.683-1.813,4.01-2.477,5.236-2.835,5.261a2.275,2.275,0,0,0-2.247,1.226,2.024,2.024,0,0,1-1.124,1.022,10.9,10.9,0,0,0-2.375,1.149,20.244,20.244,0,0,1-1.813,1.047,7.532,7.532,0,0,1,.128-1.711c.281-1.941.128-2.886-.46-2.886a4.742,4.742,0,0,0-1.635,1.022c-.715.613-1.3.919-1.4.766-.383-.639-1.711-.255-2.758.792a13.527,13.527,0,0,1-5.363,2.963c-1.149.179-1.813-.306-2.4-1.788-.409-1.022-1.047-1.226-1.609-.562-.281.358-.358.332-.69-.128a1.176,1.176,0,0,0-.69-.511c-.562,0-1.737,1.328-2.273,2.554-.894,2.018-2.733,4.572-3.4,4.75a1.1,1.1,0,0,1-.766.026,9.165,9.165,0,0,1-.613-3.805,3.818,3.818,0,0,0-.281-1.864c-.128-.1-.715.153-1.251.562-2.452,1.737-2.656,1.864-2.886,1.635a5.9,5.9,0,0,1,.332-2.426,12.062,12.062,0,0,0,.46-2.631c-.077-.383-.128-.383-.536.051-.255.23-1.558,1.992-2.912,3.882a25.4,25.4,0,0,1-2.554,3.32,6.447,6.447,0,0,1,.307-1.711,7.885,7.885,0,0,0,.332-2.145c-.077-.485-.128-.46-.511.255a6.913,6.913,0,0,0-1.022,3.652c.255,1.788.894,1.277,3.678-2.86a33.626,33.626,0,0,1,2.12-2.988,4.937,4.937,0,0,1-.281,1.3c-.919,3.116.1,3.882,2.554,1.915a13.88,13.88,0,0,1,1.558-1.175,7.157,7.157,0,0,1,.153,1.839,10.674,10.674,0,0,0,.306,2.758c.255.741.434.919,1.175.971,1,.1,1.686-.434,2.86-2.273.536-.843.894-1.175,1.149-1.073.255.077.766-.23,1.379-.817.536-.511,1.1-.868,1.251-.792.153.1.281.026.281-.179,0-.511,1.022-1.762,1.328-1.66a1.852,1.852,0,0,1,.562.971c.562,1.788,2.452,1.915,5.363.409l1.558-.817-.1,1.1c-.077.97-.026,1.1.485,1.1a4.681,4.681,0,0,0,1.864-1.226,8.9,8.9,0,0,1,1.788-1.4.771.771,0,0,0,.434-.638,6.824,6.824,0,0,1,2.35-2.605c.281,0,.255,1.686-.077,3.473a4.824,4.824,0,0,1-1.583,2.937c-.741.766-1.737,1.89-2.247,2.477-.715.843-1.1,1.073-1.711,1.073a13.54,13.54,0,0,0-2.018.23c-.664.128-2.094.358-3.141.511-1.047.179-2.631.409-3.5.536-.894.153-2.375.383-3.32.511-.971.153-2.375.383-3.141.511s-2.835.485-4.6.766c-3.141.511-6.538,1.1-11.11,1.915-1.251.23-2.86.511-3.576.638-.69.128-2.12.383-3.116.587a5.8,5.8,0,0,1-1.864.2,14.881,14.881,0,0,1,.562-1.558c.766-1.992.792-5.082.026-6.513-.715-1.354-1.43-1.967-2.171-1.864-.817.1-.741.817.1.919,1.532.179,2.579,3.065,2.018,5.568-.46,2.043-1.175,3.6-1.737,3.78-.536.153-13.332,2.707-13.613,2.707-.2,0-.664-1.481-.894-2.963-.23-1.456.46-4.495,1.532-6.666a13.744,13.744,0,0,1,5.287-5.568c.817-.434,1.481-.894,1.481-1.047s-.409-.46-.894-.69c-2.222-1.073-2.477-3.831-.613-6.64a9.318,9.318,0,0,1,4.827-3.5,2.679,2.679,0,0,1,2.477.281c1.737.894,2.2,1.89,1.992,4.24-.153,1.967.051,2.3.741,1.3.843-1.175.23-4.24-1.022-5.363-1.532-1.354-3.473-1.481-5.9-.332-4.291,1.967-6.181,6.921-3.754,9.807l.587.715-1.379.97c-5.031,3.448-7.483,9.092-6.155,14.174a5.252,5.252,0,0,1,.255,1.558,2.957,2.957,0,0,1-1.2.358c-1.992.332-13.332,2.937-19.461,4.469-2.094.536-3.856.945-3.882.945-.077-.1.485-5.159.843-7.33.536-3.192.715-3.576,1.507-3.576.46,0,.638-.128.638-.511a.458.458,0,0,0-.511-.511.8.8,0,0,1-.69-.409c-.1-.306,1.073-8.658,1.864-13.306.128-.69.511-1.073,2.273-2.247,4.827-3.218,9.475-7.662,10.778-10.292a6.772,6.772,0,0,0,.613-4.725c-.613-1.813-3.167-3.4-6.666-4.112A52.274,52.274,0,0,0,270.448,442.815Zm9.577,1.507c3.908.919,5.363,2.043,5.568,4.342a4.248,4.248,0,0,1-.562,2.784c-1.149,2.324-5.108,5.772-10.548,9.194l-1.1.664.077-2.4c.051-1.992-.026-2.5-.383-2.86-1.967-1.992-6.845,5.057-12.821,18.593l-1.992,4.495-1.762.409-1.762.383-3.065-1.967c-11.033-7.049-14.328-9.475-16.575-12.182-3.4-4.086-1.711-8.76,4.7-13.025,6.308-4.189,17.086-7.611,27.838-8.811A55.372,55.372,0,0,1,280.025,444.321Zm89.184,10.012c-.358.69-1.967,5.491-2.733,8.122a48,48,0,0,0-1.864,9.067l-.179,2.171-1.022.153c-1.277.2-2.554.485-6.308,1.379a17.178,17.178,0,0,1-3.116.613,21.046,21.046,0,0,1,.638-3.039c.638-2.528.843-3.039,1.532-3.627a18.538,18.538,0,0,1,3.908-2.247,3.552,3.552,0,0,1,.153,1.4c0,1.1.1,1.456.434,1.583.511.2,1.149-.536,2.145-2.554.485-.919.868-1.4,1.047-1.3.2.128.23.051.128-.255a4.548,4.548,0,0,1,.562-2.145c1.175-2.809,4.7-10.011,4.8-9.909C369.414,453.8,369.337,454.077,369.209,454.333Zm-96.591,3.32a21.573,21.573,0,0,1-.281,2.835c-.281,1.583-.306,1.635-1.686,2.528-1.456.919-1.864,1.456-1.4,1.915.23.23.536.2,1.251,0a4.611,4.611,0,0,1,1-.23c.026.026-.128,1.022-.332,2.222s-.69,4.24-1.047,6.768l-.69,4.6-1.277.051c-.69.051-2.86.179-4.776.332a21.416,21.416,0,0,1-3.78.128c-.332-.2.562-2.528,2.605-6.819,4.521-9.552,8.326-15.528,9.884-15.528C272.542,456.453,272.619,456.606,272.619,457.653Zm89.644,9.679c-.766,1.558-1.277,2.069-1.277,1.251a8.245,8.245,0,0,1,1.481-3.422C363.207,464.727,363.131,465.57,362.262,467.332Zm-10.6-.409c.332.536-2.707,3.627-3.141,3.192a2.53,2.53,0,0,1,.46-1.3C349.85,467.154,351.2,466.183,351.664,466.924Zm-12.8,1.609a4.849,4.849,0,0,1-1.456,1.507c-.434.23-.434.179-.179-.358.46-.868,1.328-1.737,1.583-1.583A.374.374,0,0,1,338.868,468.533Zm15.017,4.265c-.46,1.354-.511,1.4-1.532,1.558-.587.077-1.073.077-1.073,0a15.768,15.768,0,0,1,2.988-3.192A5.435,5.435,0,0,1,353.885,472.8Zm-.868,2.554a1.835,1.835,0,0,1-.511.919,14.358,14.358,0,0,1-2.911.792,4.078,4.078,0,0,1,.613-1.124c.664-1.073,1.022-1.251,2.4-1.328C353.273,474.586,353.273,474.611,353.017,475.352Zm-2.247,5.338a12.922,12.922,0,0,1-1.967,2.86c-.817.715-.945.741-1.3.383s-.383-.613-.128-1.813c.511-2.4.766-2.707,2.631-3.192a12.7,12.7,0,0,1,1.737-.358A12.287,12.287,0,0,1,350.77,480.69Zm-81.752-.434c0,.46-.255,3.014-.562,5.67l-.562,4.827-1.277.332c-.69.179-1.3.332-1.328.358-.051,0-.077-.2-.077-.46,0-1.2-1.583-3.576-3.754-5.7-1.251-1.2-2.579-2.426-2.988-2.733-.69-.536-.715-.587-.306-1.2.945-1.43,2.554-1.813,8.275-1.89l2.605-.026Zm-11.212.051a4.052,4.052,0,0,1-.255.792l-.255.664-.766-.587c-.69-.511-.741-.587-.332-.766C256.707,480.23,257.806,480.153,257.806,480.307Zm-3.065,2.12c1.2.817,1.686,1.328,1.609,1.583-.409,1.226-4.98,10.267-5.619,11.135a4.249,4.249,0,0,1-2.605,1.66l-1.864.638-.868-1a5.37,5.37,0,0,1-1.022-1.839c-.128-.766,0-1.047,1.1-2.452,1.532-1.967,4.061-3.933,5.517-4.291,1.507-.383,1.839-.613,1.839-1.3,0-.485-.153-.638-.766-.69-1.532-.128-5.363,2.809-7.738,5.951l-.587.766.1-1.941a8.794,8.794,0,0,1,4.393-7.253,20.452,20.452,0,0,1,4.546-2.171A12.222,12.222,0,0,1,254.741,482.426ZM306.51,484.7a9.065,9.065,0,0,1-5.823,2.86c-1.941.128-3.218-.2-4.035-1.073l-.562-.613.715-.179c1.967-.511,10.241-2.375,10.676-2.4C307.863,483.295,307.608,483.627,306.51,484.7Zm-46.865,1.686c2.018,1.992,3.014,3.473,3.4,5.057.153.613.051.664-2.094,1.251-1.226.332-3.7,1.047-5.465,1.583-1.788.562-3.269,1-3.346,1a16.421,16.421,0,0,1,1-2.247c.587-1.226,1.686-3.678,2.426-5.491a13.456,13.456,0,0,1,1.635-3.244A13.456,13.456,0,0,1,259.645,486.385Zm2.758,9.271c-1.4,2.247-5.108,4.495-9.194,5.517-3.039.766-6.334.613-8.045-.409a4.007,4.007,0,0,1-2.069-4.061c.281-1.762.511-1.864,1.277-.562a4.388,4.388,0,0,0,1.124,1.4c.23.153.306.281.153.281a1.865,1.865,0,0,0-.766.409c-.434.358-.306.383,1.66.23a12.921,12.921,0,0,0,2.988-.562c.46-.23,3.627-1.175,7.049-2.12C263.246,493.97,263.45,493.97,262.4,495.656Z" transform="translate(0)" fill-rule="evenodd" fill="url(#linear-gradient)"/>
    <path id="Path_2" data-name="Path 2" d="M714.948,564.693a1.332,1.332,0,0,0,.631,0c.151-.076.025-.126-.328-.126S714.771,564.617,714.948,564.693Z" transform="translate(-359.36 -90.695)" fill-rule="evenodd" fill="url(#linear-gradient)"/>
    <path id="Path_3" data-name="Path 3" d="M557.071,505.307c-.808.606-2.625,4.265-3.558,7.091-1.413,4.189-1.893,8.5-1.186,10.246.732,1.741,2.574,1.085,5.3-1.867,2.246-2.473,1.867-2.473-.53-.025-2.019,2.069-3.255,2.776-3.785,2.246a5.62,5.62,0,0,1-.555-3.281,13.513,13.513,0,0,1,1.388-2.953,42.42,42.42,0,0,0,4.038-9.691c.278-1.337.278-1.59-.05-1.918C557.778,504.8,557.677,504.828,557.071,505.307Zm.833,1.009a11.381,11.381,0,0,1-.656,2.7,55.155,55.155,0,0,1-3.76,8.176c-.429.555-.429.555-.278-.53a43.9,43.9,0,0,1,3.735-10.321C557.576,505.332,557.9,505.307,557.9,506.316Z" transform="translate(-238.313 -46.193)" fill-rule="evenodd" fill="url(#linear-gradient)"/>
    <path id="Path_4" data-name="Path 4" d="M404.115,520.23c-1.312,1.388-3.71,8.05-4.341,12.038-.328,2.145-.252,4.593.151,4.719a6.811,6.811,0,0,0,1.514-2.246,20.338,20.338,0,0,1,2.2-3.356c.959-.984.984-.984,1.337-.5a2.067,2.067,0,0,1,.227,1.615c-.227,1.59-.3,1.691-1.64,2.675-2.524,1.842-3.886,4.921-2.246,5.123.934.1,2.095-1.186,3.306-3.684.984-2.069,1.035-2.12,2.549-2.826,2.776-1.237,2.675-1.262,2.751.429.076,1.388.126,1.464.757,1.539.555.076.808-.1,1.337-.934a2.74,2.74,0,0,0,.58-2.17,7.476,7.476,0,0,1-.05-1.136c.025,0,.454.177.934.379a5.077,5.077,0,0,0,3.331.126c.328-.151.1-.177-.757-.1-1.11.126-1.464.025-2.953-.732l-1.691-.883-.606,1.009c-.53.934-.808,1.11-2.725,1.741-1.161.4-2.17.732-2.246.732a3.336,3.336,0,0,1-.05-1.237c.126-1.489-.252-2.3-1.06-2.3-.833,0-1.918,1.186-3.281,3.609-.959,1.716-1.161,1.943-1.161,1.338a6.35,6.35,0,0,1,1.11-2.4c2.145-3.2,4.038-8.858,3.886-11.583C405.2,519.625,404.9,519.372,404.115,520.23Zm.858,1.968a33.8,33.8,0,0,1-2.9,8.757c-1.792,3.533-1.994,3-.681-1.767.908-3.23,2.473-7.6,2.978-8.2C404.948,520.281,405.15,520.659,404.973,522.2Zm7.293,10.826c-.227,1.211-.833,2.271-1.262,2.271-.555,0-.479-1.666.151-3.028.5-1.085.53-1.11.883-.631A1.75,1.75,0,0,1,412.267,533.025Zm-7.949,2.574c0,.757-2.4,4.24-2.927,4.24-1.035,0-.479-1.489,1.237-3.23C403.939,535.3,404.317,535.044,404.317,535.6Z" transform="translate(-124.79 -57.198)" fill-rule="evenodd" fill="url(#linear-gradient)"/>
  </g>
</svg>
